<svg width="26" height="20" viewBox="0 0 26 20" fill="none" xmlns="http://www.w3.org/2000/svg">
<path fill-rule="evenodd" clip-rule="evenodd" d="M3.11138 0.666687H23.1114C24.3336 0.666687 25.3336 1.66669 25.3336 2.88891V17.3334C25.3336 18.5556 24.3336 19.5556 23.1114 19.5556H3.11138C1.88916 19.5556 0.88916 18.5556 0.88916 17.3334V2.88891C0.88916 1.66669 1.88916 0.666687 3.11138 0.666687ZM3.11138 2.88891V17.3334H12.0003V2.88891H3.11138ZM23.1114 17.3334H14.2225V2.88891H23.1114V17.3334ZM22.0003 6.7778H15.3336V8.44446H22.0003V6.7778ZM15.3336 9.55558H22.0003V11.2222H15.3336V9.55558ZM22.0003 12.3334H15.3336V14H22.0003V12.3334Z" fill="#F8B76B"/>
</svg>
