<svg width="62" height="62" viewBox="0 0 62 62" fill="none" xmlns="http://www.w3.org/2000/svg">
<path fill-rule="evenodd" clip-rule="evenodd" d="M5.80077 48.5046L55.6055 12.9025L55.6794 13.0058C55.655 12.9714 55.6301 12.9369 55.6055 12.9025C45.7743 -0.85076 26.6555 -4.03015 12.9023 5.80113C-0.850945 15.6324 -4.03037 34.7513 5.80077 48.5046Z" fill="#C4C4C4"/>
<path fill-rule="evenodd" clip-rule="evenodd" d="M55.6055 12.9025L5.80077 48.5046L5.77696 48.4715C5.78485 48.4826 5.79287 48.4935 5.80077 48.5046C15.6321 62.2578 34.751 65.4374 48.5042 55.6061C62.2575 45.7748 65.4368 26.6558 55.6055 12.9025Z" fill="#F8F8F8"/>
<path d="M14.3984 47.0807C14.3984 49.4392 12.4865 51.3511 10.128 51.3511C7.76956 51.3511 5.85766 49.4392 5.85766 47.0807C5.85766 44.7223 7.76956 42.8104 10.128 42.8104C12.4865 42.8104 14.3984 44.7223 14.3984 47.0807Z" fill="#C4C4C4"/>
<path d="M56.3255 15.2472C56.3255 17.6056 54.4136 19.5175 52.0551 19.5175C49.6967 19.5175 47.7848 17.6056 47.7848 15.2472C47.7848 12.8887 49.6967 10.9768 52.0551 10.9768C54.4136 10.9768 56.3255 12.8887 56.3255 15.2472Z" fill="#C4C4C4"/>
<path fill-rule="evenodd" clip-rule="evenodd" d="M12.1857 43.9404C19.4962 54.1671 33.7129 56.5313 43.9397 49.2209C54.1665 41.9104 56.5306 27.6937 49.2202 17.4669C41.9098 7.24013 27.693 4.87596 17.4662 12.1864C7.23946 19.4968 4.87529 33.7136 12.1857 43.9404Z" fill="white"/>
</svg>
