<svg width="26" height="27" viewBox="0 0 26 27" fill="none" xmlns="http://www.w3.org/2000/svg">
<path fill-rule="evenodd" clip-rule="evenodd" d="M18.0369 0.926147H1.66649C0.973893 0.926147 0.407227 1.49281 0.407227 2.18541V19.815L5.44426 14.778H18.0369C18.7294 14.778 19.2961 14.2113 19.2961 13.5187V2.18541C19.2961 1.49281 18.7294 0.926147 18.0369 0.926147ZM16.7776 3.44458V12.2594H4.39909L3.65613 13.0024L2.92576 13.7327V3.44458H16.7776ZM21.8146 5.96321H24.3332C25.0257 5.96321 25.5924 6.52987 25.5924 7.22247V26.1114L20.5554 21.0743H6.70352C6.01093 21.0743 5.44426 20.5077 5.44426 19.8151V17.2965H21.8146V5.96321Z" fill="white"/>
</svg>
